<?xml version="1.0" encoding="iso-8859-1"?>
<!-- Generator: Adobe Illustrator 21.1.0, SVG Export Plug-In . SVG Version: 6.00 Build 0)  -->
<svg version="1.1" id="Layer_1" xmlns="http://www.w3.org/2000/svg" xmlns:xlink="http://www.w3.org/1999/xlink" x="0px" y="0px"
	 viewBox="0 0 100.176 100.178" style="enable-background:new 0 0 100.176 100.178;" xml:space="preserve">
<g>
	<path d="M86.806,11.634H13.194c-0.829,0-1.5,0.671-1.5,1.5v73.615c0,0.828,0.671,1.5,1.5,1.5h36.222
		c0.18,0.076,0.377,0.118,0.584,0.118s0.405-0.042,0.584-0.118h36.221c0.828,0,1.5-0.672,1.5-1.5V13.134
		C88.306,12.305,87.634,11.634,86.806,11.634z M85.306,85.249H51.5V75.227c0-0.828-0.671-1.5-1.5-1.5s-1.5,0.672-1.5,1.5v10.021
		H14.694V14.634h70.612V85.249z"/>
	<path d="M37.532,50.471c0.226,0.573,0.779,0.95,1.396,0.95H61.35c0.626,0,1.187-0.39,1.405-0.976l4.917-13.169
		c0.062-0.168,0.095-0.346,0.095-0.525c0-8.088-6.58-14.668-14.668-14.668h-6.197c-8.088,0-14.668,6.58-14.668,14.668
		c0,0.188,0.036,0.375,0.104,0.55L37.532,50.471z M46.902,25.084h6.197c6.346,0,11.524,5.092,11.665,11.405l-4.455,11.932H51.87
		l-5.278-16.104c-0.258-0.787-1.105-1.217-1.893-0.958c-0.787,0.258-1.216,1.105-0.958,1.893l4.971,15.17h-8.763l-4.711-11.946
		C35.385,30.169,40.561,25.084,46.902,25.084z"/>
</g>
</svg>
