<?xml version="1.0" encoding="iso-8859-1"?>
<!-- Generator: Adobe Illustrator 21.0.2, SVG Export Plug-In . SVG Version: 6.00 Build 0)  -->
<svg version="1.1" id="Layer_1" xmlns="http://www.w3.org/2000/svg" xmlns:xlink="http://www.w3.org/1999/xlink" x="0px" y="0px"
	 viewBox="0 0 100.75 100.75" style="enable-background:new 0 0 100.75 100.75;" xml:space="preserve">
<path d="M86.516,62.917l-12.621-8.294c-0.689-0.453-1.622-0.263-2.078,0.43c-0.455,0.692-0.262,1.623,0.43,2.077l10.433,6.856
	L38.929,79.524L7.724,58.878l17.839-6.492c0.778-0.283,1.181-1.144,0.896-1.923c-0.283-0.778-1.145-1.181-1.922-0.896l-20.66,7.519
	c-0.754,0.274-1.15,1.091-0.915,1.85v8.914c0,0.175,0.036,0.34,0.091,0.496c0.01,0.475,0.244,0.937,0.67,1.219l34.174,22.61
	c0.255,0.168,0.543,0.249,0.827,0.249c0.297,0,0.584-0.098,0.834-0.265l47.073-16.717c0.554-0.197,0.915-0.688,0.981-1.235
	c0.083-0.186,0.131-0.391,0.131-0.608V64.39C87.742,63.655,87.213,63.046,86.516,62.917z M5.962,61.31l31.263,20.684v6.139
	L5.962,67.449V61.31z M40.225,82.247l44.518-15.81v6.491l-44.518,15.81V82.247z"/>
<path d="M97.11,31.695c0-0.734-0.528-1.343-1.225-1.472L62.051,7.826c-0.027-0.018-0.057-0.028-0.084-0.044
	c-0.046-0.026-0.091-0.052-0.14-0.073c-0.046-0.02-0.092-0.036-0.138-0.051c-0.045-0.015-0.089-0.029-0.135-0.039
	c-0.05-0.011-0.1-0.018-0.151-0.024c-0.045-0.005-0.09-0.011-0.136-0.012c-0.052-0.001-0.103,0.002-0.155,0.006
	c-0.045,0.003-0.09,0.007-0.136,0.014c-0.053,0.009-0.105,0.023-0.157,0.038c-0.031,0.009-0.062,0.012-0.093,0.022L13.258,24.372
	c-0.767,0.27-1.173,1.1-0.928,1.869v8.902c0,0.17,0.034,0.331,0.087,0.483c0.007,0.479,0.242,0.947,0.671,1.231l34.168,22.618
	c0.255,0.168,0.542,0.249,0.827,0.249c0.298,0,0.586-0.098,0.836-0.267l47.074-16.708c0.552-0.196,0.911-0.683,0.98-1.227
	c0.086-0.189,0.137-0.398,0.137-0.619V31.695z M61.018,10.74l31.039,20.547L48.288,46.821l-31.165-20.63L61.018,10.74z
	 M15.33,28.602l31.254,20.689v6.14L15.33,34.742V28.602z M49.584,49.544L94.11,33.741v6.491L49.584,56.036V49.544z"/>
</svg>
