<?xml version="1.0" encoding="iso-8859-1"?>
<!-- Generator: Adobe Illustrator 21.1.0, SVG Export Plug-In . SVG Version: 6.00 Build 0)  -->
<svg version="1.1" id="Layer_1" xmlns="http://www.w3.org/2000/svg" xmlns:xlink="http://www.w3.org/1999/xlink" x="0px" y="0px"
	 viewBox="0 0 100 100" style="enable-background:new 0 0 100 100;" xml:space="preserve">
<g>
	<path d="M95.814,20.343c0-0.829-0.672-1.5-1.5-1.5H54.705h-4.507H5.686c-0.829,0-1.5,0.671-1.5,1.5v25.879
		c0,0.072,0.011,0.141,0.021,0.21c-0.01,0.069-0.021,0.138-0.021,0.21v33.014c0,0.828,0.671,1.5,1.5,1.5h44.512h44.116
		c0.828,0,1.5-0.672,1.5-1.5V46.486c0-0.045-0.009-0.088-0.013-0.132c0.004-0.044,0.013-0.087,0.013-0.132V20.343z M54.705,21.843
		h38.109v22.879H80.792l-7.244-12.207c-0.271-0.455-0.761-0.734-1.29-0.734s-1.02,0.279-1.29,0.734l-7.246,12.207h-9.017h-3.007
		V21.843H54.705z M7.186,21.843h41.512v22.879H36.279l-7.247-12.207c-0.271-0.456-0.761-0.734-1.29-0.734
		c-0.53,0-1.02,0.279-1.29,0.734l-7.243,12.207H7.186V21.843z M7.186,47.722h12.877c0.529,0,1.02-0.279,1.29-0.734l6.39-10.768
		l6.392,10.768c0.271,0.455,0.761,0.734,1.29,0.734h13.273v30.435H7.186V47.722z M51.698,78.157V47.722h3.007h9.87
		c0.529,0,1.02-0.279,1.29-0.734l6.393-10.768l6.39,10.768c0.271,0.455,0.761,0.734,1.29,0.734h12.877v30.435H51.698z"/>
	<path d="M77.691,56.236H66.824c-0.828,0-1.5,0.672-1.5,1.5v11.441c0,0.828,0.672,1.5,1.5,1.5h10.867c0.828,0,1.5-0.672,1.5-1.5
		V57.736C79.191,56.908,78.52,56.236,77.691,56.236z M76.191,67.678h-7.867v-8.441h7.867V67.678z"/>
	<path d="M33.377,56.234h-10.87c-0.829,0-1.5,0.672-1.5,1.5v11.442c0,0.828,0.671,1.5,1.5,1.5h10.87c0.829,0,1.5-0.672,1.5-1.5
		V57.734C34.877,56.906,34.206,56.234,33.377,56.234z M31.877,67.677h-7.87v-8.442h7.87V67.677z"/>
</g>
</svg>
