<svg id="Layer_1" data-name="Layer 1" xmlns="http://www.w3.org/2000/svg" viewBox="0 0 100 100"><title>Artboard 14</title><path d="M95.41,56.31c-.89-5.34-6.77-19.76-7-20.37a1.5,1.5,0,0,0-2.78,0c-.25.61-6.12,15-7,20.37a6.79,6.79,0,0,0,1.62,5.57,8.95,8.95,0,0,0,13.59,0A6.79,6.79,0,0,0,95.41,56.31ZM91.5,59.94a5.95,5.95,0,0,1-9,0,3.83,3.83,0,0,1-.95-3.14h0c.58-3.48,3.62-11.57,5.45-16.24,1.83,4.67,4.87,12.76,5.45,16.24A3.83,3.83,0,0,1,91.5,59.94Z"/><path d="M69.39,57.94a1.5,1.5,0,0,0-2.78,0c-.25.61-6.12,15-7,20.37a6.79,6.79,0,0,0,1.62,5.57,8.95,8.95,0,0,0,13.59,0,6.79,6.79,0,0,0,1.62-5.57C75.51,73,69.64,58.55,69.39,57.94Zm3.12,24a5.95,5.95,0,0,1-9,0,3.83,3.83,0,0,1-.95-3.14h0c.58-3.48,3.62-11.57,5.45-16.24,1.83,4.67,4.87,12.76,5.45,16.24A3.83,3.83,0,0,1,72.5,81.94Z"/><path d="M67,41a9.11,9.11,0,0,0,6.79-3.13,6.79,6.79,0,0,0,1.62-5.57c-.89-5.34-6.77-19.76-7-20.37a1.5,1.5,0,0,0-2.78,0c-.25.61-6.12,15-7,20.37a6.79,6.79,0,0,0,1.62,5.57A9.11,9.11,0,0,0,67,41Zm-5.45-8.2h0c.58-3.48,3.62-11.57,5.45-16.24,1.83,4.67,4.87,12.76,5.45,16.24a3.83,3.83,0,0,1-.95,3.13,5.95,5.95,0,0,1-9,0A3.83,3.83,0,0,1,61.55,32.81Z"/><path d="M50.34,40.57C46.17,32.75,30.88,12,30.23,11.11A1.5,1.5,0,0,0,29,10.5h0a1.5,1.5,0,0,0-1.2.6C27.15,12,11.54,33,7.4,40.93c-5.93,11.44-5.87,21.29.18,28.48A16.26,16.26,0,0,0,20,75.53a15.29,15.29,0,0,0,7.48-2V86A7.77,7.77,0,0,0,35,94a1.5,1.5,0,0,0,0-3,4.78,4.78,0,0,1-4.5-5V73.33c6.56,3.49,14.48,1.9,19.66-4.26C56.58,61.44,56.64,52.38,50.34,40.57ZM47.87,67.13C43.18,72.7,36.12,73.74,30.5,69.8V33.5a1.5,1.5,0,0,0-3,0V70c-5.6,4.11-12.89,3.13-17.62-2.48-6.58-7.82-3.53-18,.18-25.17,3.37-6.5,15.13-22.6,18.95-27.78C32.78,19.69,44.29,35.6,47.69,42,53.42,52.72,53.47,60.47,47.87,67.13Z"/></svg>