<?xml version="1.0" encoding="UTF-8"?> <svg xmlns="http://www.w3.org/2000/svg" width="44" height="67" viewBox="0 0 676 1024"> <path fill="#00afef" d="M289.79 973.644c-9.833-1.091-29.861-4.142-49.661-8.675s-39.376-10.549-56.006-16.914c-16.629-6.365-30.315-13.077-43.091-20.53-12.778-7.454-24.649-15.651-36.747-25.632s-24.423-21.752-34.12-32.476-16.766-20.4-23.2-30.47c-6.434-10.071-12.235-20.531-17.672-32.476s-10.512-25.37-14.137-36.355-5.8-19.529-7.657-29.467c-1.857-9.939-3.399-21.273-4.078-29.643s-0.498-13.775-0.408-16.478 0.091-2.703 3.353 1.919 9.787 13.862 17.173 23.843 15.633 20.706 23.699 29.947c8.065 9.24 15.949 17 24.559 24.28s17.943 14.080 25.102 19.137 12.142 8.37 17.308 10.68c5.165 2.31 10.511 3.617 16.131 4.969 5.618 1.351 11.509 2.747 19.392 3.488s17.762 0.827 26.734 0.827c8.971 0 17.037-0.087 22.883-0.522 5.845-0.436 9.47-1.221 14.409-2.659s11.193-3.531 16.041-5.493c4.848-1.962 8.292-3.793 10.013-4.708s1.722-0.916 1.178-2.048-1.632-3.4-4.531-6.626c-2.9-3.226-7.613-7.412-14.092-12.773s-14.726-11.9-22.882-17.697c-8.156-5.797-16.221-10.855-23.924-15.258s-15.043-8.151-22.247-11.812c-7.204-3.662-14.274-7.237-20.3-9.896s-11.010-4.402-15.359-5.84c-4.35-1.439-8.066-2.573-11.736-3.793s-7.295-2.529-10.783-3.617c-3.489-1.091-6.842-1.962-10.783-2.877s-8.474-1.874-10.74-2.354c-2.265-0.48-2.265-0.48 1.586-0.347 3.852 0.13 11.554 0.391 19.484 1.699s16.084 3.662 24.106 6.191c8.020 2.528 15.904 5.23 24.378 8.544 8.473 3.312 17.535 7.236 25.51 11.551 7.974 4.316 14.861 9.024 21.93 13.731s14.318 9.416 20.616 13.818 11.645 8.5 16.176 12.337c4.532 3.836 8.247 7.409 11.239 10.288 2.991 2.876 5.256 5.057 6.253 6.407s0.725 1.874 1.133 7.585c0.407 5.709 1.495 16.608 3.353 29.468 1.857 12.858 4.485 27.68 8.201 41.499s8.519 26.633 12.461 38.228c3.941 11.595 7.022 21.97 10.737 31.43s8.066 18.002 10.785 23.54c2.718 5.536 3.806 8.064 4.757 9.46s1.767 1.656 2.356 2.223 0.952 1.438-8.881 0.349z"></path> <path fill="#00afef" d="M243.221 730.733c0.94-5.428 2.482-16.413 3.66-25.479s1.993-16.217 2.899-22.058c0.906-5.841 1.903-10.374 2.719-14.21s1.449-6.976 1.903-8.98 0.724-2.877-0.544-6.146c-1.269-3.27-4.078-8.936-6.389-15.868s-4.124-15.126-4.893-25.064c-0.77-9.939-0.499-21.622 1.132-32.258s4.622-20.226 10.24-32.431c5.618-12.207 13.865-27.027 23.789-40.41s21.523-25.326 35.797-36.965c14.272-11.639 31.219-22.973 50.024-33.217s39.465-19.399 55.916-25.458c16.448-6.060 28.683-9.024 42.911-11.639s30.449-4.882 38.56-6.015 8.11-1.133 6.751-4.142-4.077-9.024-8.564-17.916c-4.486-8.892-10.739-20.663-17.581-33.74s-14.273-27.463-20.005-38.578c-5.731-11.116-9.764-18.962-14.182-27.026s-9.221-16.348-13.661-24.76c-4.441-8.414-8.519-16.958-12.665-25.458s-8.36-16.958-12.982-25.763c-4.622-8.805-9.651-17.96-14.907-27.963s-10.74-20.858-16.992-32.040-13.276-22.689-19.484-33.762c-6.208-11.073-11.599-21.708-16.199-30.797s-8.406-16.63-12.007-23.605c-3.603-6.976-7.001-13.384-10.512-20.184s-7.137-13.993-9.562-18.94c-2.426-4.948-3.648-7.65-4.26-9.001s-0.612-1.351-2.38 2.137-5.301 10.462-9.197 18.287c-3.898 7.825-8.157 16.499-12.529 25.349-4.374 8.849-8.859 17.872-13.436 27.049-4.577 9.175-9.244 18.504-14.296 28.116s-10.489 19.507-15.745 29.358c-5.257 9.852-10.332 19.66-15.7 29.86-5.37 10.201-11.035 20.793-15.634 29.643s-8.134 15.953-11.848 22.776c-3.715 6.822-7.612 13.359-11.033 19.92s-6.367 13.143-11.033 22.079c-4.666 8.936-11.056 20.226-16.72 30.949s-10.603 20.881-14.522 28.706c-3.92 7.824-6.821 13.317-10.875 20.946-4.056 7.629-9.268 17.392-13.276 25.043-4.011 7.65-6.82 13.186-9.81 19.31s-6.162 12.838-9.583 19.312c-3.421 6.472-7.092 12.706-11.056 19.943s-8.225 15.475-12.802 24.368c-4.577 8.891-9.47 18.439-13.933 27.483s-8.496 17.59-12.121 26.505c-3.625 8.915-6.842 18.198-10.308 27.506s-7.183 18.636-10.694 29.033c-3.512 10.397-6.82 21.861-9.356 31.473s-4.304 17.371-6.003 27.354c-1.699 9.982-3.33 22.188-4.599 33.523s-2.175 21.796-2.629 27.026c-0.453 5.231-0.453 5.231 5.257 4.97s17.127-0.786 26.733-1.483c9.606-0.698 17.399-1.57 29.135-2.267s27.413-1.221 41.233-1.438c13.82-0.219 25.783-0.131 34.935 0.48s15.496 1.744 22.429 3.357c6.932 1.612 14.454 3.704 21.161 6.189s12.595 5.361 17.761 8.326c5.165 2.965 9.606 6.016 13.911 9.809s8.473 8.325 11.622 12.075c3.15 3.748 5.278 6.712 6.944 9.23s2.866 4.588 3.875 6.222c1.008 1.634 1.823 2.833 2.39 3.847s0.882 1.841 1.213 2.32 0.669 0.61 1.61-4.817z"></path> <path fill="#00a859" d="M368.225 1014.978c-6.163-8.768-18.033-26.029-24.015-34.923s-6.072-9.417-5.846-11.29c0.226-1.874 0.77-5.1 1.044-6.712 0.271-1.613 0.271-1.613-3.445-6.67s-11.147-15.17-16.675-23.757c-5.528-8.589-9.152-15.651-12.55-22.363s-6.571-13.078-9.017-18.265c-2.447-5.188-4.169-9.198-5.438-12.423s-2.084-5.667-2.855-8.281c-0.77-2.615-1.495-5.406-1.903-6.974-0.408-1.57-0.498-1.918 5.846-8.325s19.121-18.875 30.72-29.467c11.598-10.593 22.021-19.312 33.802-28.116s24.922-17.698 37.020-25.022c12.098-7.324 23.153-13.078 34.481-18.135s22.928-9.416 33.35-12.685c10.421-3.271 19.665-5.45 24.286-6.54s4.622-1.091-0.815 1.177c-5.438 2.267-16.313 6.801-27.821 11.988-11.51 5.187-23.654 11.028-34.211 16.564s-19.53 10.767-28.955 16.695c-9.424 5.929-19.301 12.555-27.91 18.919s-15.95 12.466-23.426 18.962c-7.477 6.495-15.089 13.383-22.655 20.75s-15.089 15.212-19.166 19.79c-4.078 4.577-4.714 5.884-5.257 7.497s-0.997 3.531-0.634 5.275c0.362 1.744 1.54 3.312 2.492 4.317 0.952 1.002 1.676 1.438 4.668 2.267 2.99 0.828 8.247 2.048 14.591 3.095s13.774 1.918 23.606 2.44 22.067 0.698 31.628 0.219c9.56-0.481 16.446-1.613 26.778-5.493s24.105-10.504 36.656-18.090 23.879-16.129 35.706-27.463c11.826-11.334 24.149-25.458 34.119-37.401s17.581-21.708 24.469-30.993c6.886-9.285 13.049-18.090 18.033-24.584 4.984-6.496 8.79-10.68 12.733-14.516 3.941-3.837 8.019-7.324 10.194-9.285s2.446-2.398 0.182-3.357c-2.265-0.958-7.070-2.441-16.675-4.097-9.606-1.657-24.015-3.487-40.237-5.057s-34.255-2.877-49.932-3.27-28.999 0.131-42.229 1.527c-13.232 1.394-26.372 3.661-39.694 7.106s-26.824 8.064-36.385 12.206c-9.562 4.141-15.18 7.803-20.889 11.987s-11.51 8.892-17.037 14.298c-5.528 5.405-10.785 11.508-14.591 17.261s-6.162 11.161-8.518 17.176c-2.356 6.015-4.712 12.64-6.433 20.051-1.722 7.409-2.81 15.606-3.354 19.703s-0.544 4.097-1.313 0.13-2.311-11.9-3.898-21.838-3.217-21.883-3.488-36.704c-0.272-14.822 0.815-32.52 2.039-46.207s2.582-23.365 4.532-32.868c1.948-9.503 4.485-18.831 8.654-30.296s9.97-25.065 18.080-40.671c8.11-15.606 18.532-33.217 28.319-47.994s18.939-26.721 30.086-39.232c11.147-12.511 24.287-25.589 34.12-35.047s16.358-15.301 22.701-20.575c6.343-5.275 12.506-9.983 18.759-14.211s12.595-7.978 15.767-9.852c3.172-1.874 3.172-1.874-0.544 1.787s-11.147 10.985-18.351 18.091c-7.205 7.105-14.183 13.993-21.794 21.491-7.613 7.497-15.859 15.606-23.969 24.847s-16.087 19.615-22.52 28.029c-6.434 8.414-11.328 14.865-16.403 21.491s-10.332 13.427-15.269 21.317c-4.94 7.889-9.562 16.87-12.959 23.54s-5.573 11.028-8.7 17.261c-3.126 6.234-7.204 14.342-10.557 21.186-3.354 6.843-5.981 12.423-7.974 17.044s-3.354 8.283-4.215 12.206-1.223 8.108-1.54 10.504-0.588 3.009 1.903 3.009c2.492 0 7.749-0.611 19.167-2.441s28.998-4.883 41.595-7.845c12.596-2.965 20.209-5.842 27.504-8.457s14.272-4.97 21.523-8.588c7.249-3.618 14.772-8.5 22.475-14.472s15.587-13.033 22.882-20.356c7.294-7.324 14.002-14.908 19.665-22.668s10.286-15.692 14.636-24.498c4.349-8.806 8.426-18.482 12.958-29.119s9.516-22.232 13.866-33.129c4.349-10.898 8.065-21.099 11.464-29.686 3.398-8.589 6.479-15.562 9.287-22.405s5.347-13.558 6.934-17.655 2.219-5.58 2.537-6.321c0.317-0.741 0.317-0.741 7.341-3.487s21.069-8.239 28.093-10.985c7.023-2.746 7.023-2.746 14.998 8.196 7.974 10.94 23.925 32.823 31.9 43.766 7.974 10.94 7.974 10.94 0.544 19.31s-22.293 25.108-30.856 36.094c-8.564 10.985-10.829 16.215-12.324 22.057s-2.221 12.293-1.722 18.177 2.219 11.203 4.712 16.042c2.492 4.839 5.754 9.197 9.878 12.772s9.106 6.365 12.687 8.545c3.58 2.18 5.754 3.748 9.97 5.449 4.214 1.7 10.466 3.531 17.943 5.841s16.175 5.1 23.924 6.888c7.749 1.787 14.544 2.57 17.944 2.964 3.398 0.392 3.398 0.392 3.533 13.775s0.408 40.148 0.544 53.531c0.136 13.383 0.136 13.383-5.528 13.819s-16.992 1.307-24.106 2.005c-7.113 0.697-10.013 1.22-14.951 2.615-4.94 1.394-11.918 3.662-18.036 6.104-6.117 2.44-11.373 5.055-15.995 8.020s-8.609 6.277-11.463 10.071c-2.855 3.792-4.577 8.063-5.618 12.51s-1.406 9.067-1.45 12.686c-0.045 3.617 0.226 6.234 1.677 11.247s4.077 12.422 8.065 19.834c3.988 7.409 9.334 14.821 15.225 22.624s12.324 15.997 16.312 20.836c3.986 4.839 5.527 6.322 6.299 7.063s0.77 0.741-6.842 11.29-22.837 31.646-30.449 42.195c-7.612 10.548-7.612 10.548-13.457 7.933s-17.537-7.845-26.372-11.594c-8.835-3.75-14.817-6.016-21.476-7.76-6.662-1.744-14.002-2.964-20.753-3.617s-12.914-0.742-18.442-0.35-10.421 1.264-14.454 3.313c-4.033 2.048-7.204 5.275-9.47 7.978s-3.625 4.882-5.301 8.849c-1.677 3.967-3.671 9.721-4.804 15.126s-1.405 10.463-1.722 15.954c-0.317 5.493-0.679 11.421-0.362 19.312 0.316 7.889 1.314 17.741 2.355 24.803s2.13 11.334 2.673 13.469c0.544 2.137 0.544 2.137-11.51 5.886s-36.157 11.245-49.026 15.3c-12.868 4.053-14.499 4.665-15.768 5.151s-2.176 0.844-2.855 0.888-1.132-0.228-7.294-8.996z"></path> <path fill="#fefefe" d="M104.404 479.484c6.58-0.906 20.355-3.608 27.243-4.96 6.886-1.351 6.886-1.351 13.775-23.756 6.887-22.405 20.663-67.217 31.086-99.995s17.491-53.53 23.745-72.186c6.253-18.657 11.69-35.222 16.085-48.561s7.747-23.451 10.194-30.819 3.988-11.987 4.758-14.299c0.769-2.311 0.769-2.311-2.221 3.444s-8.972 17.262-14.545 29.12c-5.573 11.856-10.739 24.062-16.312 36.66s-11.555 25.588-17.536 39.275c-5.981 13.687-11.962 28.073-18.123 42.153s-12.506 27.854-18.169 40.365c-5.665 12.511-10.649 23.757-15.226 34.35s-8.746 20.531-12.959 30.209c-4.214 9.677-8.473 19.093-11.112 24.748s-3.659 7.553-4.395 9.155c-0.736 1.601-1.19 2.909-1.723 4.010s-1.146 1.99 5.434 1.084z"></path> </svg> 